<svg version="1.1" id="Layer_1" xmlns="http://www.w3.org/2000/svg" xmlns:xlink="http://www.w3.org/1999/xlink" x="0px" y="0px"
	 width="100%" viewBox="0 0 960 960" enable-background="new 0 0 960 960" xml:space="preserve">
<path fill="#000000" opacity="1.000000" stroke="none" 
	d="
M474.000000,961.000000 
	C316.368011,961.000000 158.736023,961.000000 1.052016,961.000000 
	C1.052016,641.105042 1.052016,321.210114 1.052016,1.000000 
	C158.693390,1.000000 316.386993,1.000000 474.846985,1.279830 
	C474.808807,2.359244 474.126709,3.365156 473.180786,3.926401 
	C464.056030,9.340291 454.922607,14.741465 445.722656,20.026176 
	C429.372681,29.418045 412.973602,38.724503 396.597046,48.070137 
	C377.870331,58.756935 359.097931,69.364769 340.433350,80.158981 
	C320.484528,91.695892 300.698914,103.515419 280.730865,115.018555 
	C259.095825,127.481987 237.276672,139.625793 215.640320,152.086990 
	C192.728287,165.282883 169.963333,178.733856 147.082031,191.983459 
	C135.082565,198.931854 122.961784,205.670486 110.913452,212.534851 
	C97.758377,220.029785 84.607185,227.531937 71.494438,235.100449 
	C68.952499,236.567627 66.595161,238.354614 64.086212,240.459427 
	C64.013138,400.146332 64.003838,559.367859 64.039841,718.589355 
	C64.040184,720.100403 64.643410,721.611267 65.103226,723.443726 
	C82.268074,733.520386 99.290413,743.283386 116.323280,753.027893 
	C126.553619,758.880676 136.830017,764.653442 147.033081,770.553162 
	C163.355103,779.990967 179.607391,789.549500 195.937820,798.972656 
	C210.321945,807.272705 224.793762,815.420593 239.188538,823.702332 
	C256.084869,833.423218 272.938446,843.218384 289.813171,852.976807 
	C301.387146,859.669861 312.955505,866.372742 324.545013,873.038818 
	C335.300629,879.225342 346.080963,885.369019 356.863922,891.539368 
	C357.165924,889.446167 357.487549,887.216980 357.891907,884.526489 
	C357.981262,865.018311 358.026947,845.971130 357.910706,826.924927 
	C357.902557,825.584106 356.698792,824.250671 356.029602,822.949585 
	C356.008209,822.985413 356.082642,822.947632 355.973602,822.645752 
	C355.253845,822.192078 354.643127,822.040222 354.029846,821.926025 
	C354.027252,821.963684 354.102386,821.956909 354.026855,821.701660 
	C353.658173,821.268921 353.364990,821.091370 352.908447,820.586182 
	C349.534332,818.505981 346.292145,816.808472 343.118683,814.990906 
	C332.373413,808.836731 321.686523,802.579956 310.910858,796.479797 
	C303.363647,792.207397 295.707916,788.126709 287.979736,783.651733 
	C286.921600,782.869263 285.984436,782.395325 285.032104,781.957336 
	C285.016907,781.993225 285.085388,781.955994 285.001770,781.704834 
	C284.628845,781.264465 284.339569,781.075195 284.033203,780.926270 
	C284.016113,780.966614 284.094635,780.927917 283.974365,780.588257 
	C281.918579,779.470276 279.983032,778.691956 278.028748,777.949829 
	C278.010040,777.985962 278.082367,777.948608 277.967529,777.639160 
	C276.918030,776.856628 275.983429,776.383606 275.033295,775.946533 
	C275.017792,775.982483 275.091309,775.955383 275.014465,775.692749 
	C274.623596,775.345764 274.309570,775.261292 273.771881,775.105713 
	C273.548187,775.034546 273.083496,774.967346 272.948975,774.646973 
	C271.558807,773.855103 270.303101,773.383667 269.029236,772.948608 
	C269.011078,772.984985 269.083832,772.948730 268.952820,772.620972 
	C266.230499,770.833252 263.639221,769.373230 261.032410,767.948853 
	C261.016907,767.984497 261.089508,767.956482 261.012512,767.696350 
	C260.624207,767.348572 260.312897,767.260925 259.780640,767.099121 
	C259.559662,767.024841 259.097778,766.961609 258.984009,766.658997 
	C258.257385,766.195740 257.644501,766.035095 256.894104,765.551147 
	C250.360291,761.510742 243.933701,757.844666 237.574020,754.065796 
	C224.173553,746.103333 210.874023,737.968872 197.407974,730.119629 
	C186.195419,723.583984 174.791290,717.377747 163.495880,710.983459 
	C152.346191,704.671509 141.226471,698.306641 130.015472,691.707336 
	C129.629395,691.360046 129.321411,691.270447 128.789032,691.105286 
	C128.564636,691.029663 128.096405,690.958679 128.043777,690.535278 
	C127.659416,688.042480 127.038055,685.973206 127.037331,683.903748 
	C126.993141,557.936279 127.000717,431.968781 126.994247,306.001282 
	C126.994148,304.006714 126.880051,302.012146 126.891129,299.561218 
	C127.008980,295.414795 127.054863,291.724701 127.397491,287.924011 
	C127.739059,287.207520 127.783882,286.601715 127.902344,285.566162 
	C127.762062,284.047058 127.615479,282.939209 127.323616,281.871094 
	C124.957275,273.211395 126.981544,268.191742 134.563843,264.070984 
	C140.194092,261.011078 145.923309,258.122498 151.457230,254.898071 
	C171.873169,243.002380 192.167801,230.897797 212.620346,219.065872 
	C230.843628,208.523621 249.289139,198.365280 267.503296,187.807526 
	C290.765808,174.323517 313.834229,160.504578 337.096710,147.020508 
	C364.012177,131.418976 391.089600,116.097076 418.016510,100.515221 
	C436.634308,89.741615 455.089142,78.686607 473.684601,67.873985 
	C476.904480,66.001732 480.119293,64.725006 484.074707,67.393661 
	C491.393707,72.331673 499.207764,76.530487 506.649750,81.296211 
	C508.190979,82.283188 509.009125,84.399292 510.088440,86.459572 
	C510.016327,339.475220 510.016327,592.026306 510.016327,844.918152 
	C511.577545,844.232178 512.813599,843.689087 514.377686,843.006531 
	C530.425232,833.448547 546.035583,823.841614 561.890747,814.657532 
	C583.339355,802.233276 605.040161,790.244934 626.513550,777.862610 
	C646.878479,766.119446 667.072693,754.080505 687.374878,742.227905 
	C699.890564,734.921143 712.451172,727.690796 725.021912,720.478882 
	C738.959595,712.482788 752.932434,704.547974 766.888855,696.584351 
	C778.298035,690.074036 789.705383,683.560486 801.485962,676.820862 
	C801.903381,655.537720 801.959656,634.482117 801.953308,613.426514 
	C801.953064,612.581116 801.359985,611.735840 801.021545,610.443604 
	C800.950073,607.001404 800.900146,604.006104 800.924561,600.554138 
	C800.941711,596.403015 800.884460,592.708496 800.898438,588.600098 
	C800.921997,586.790771 800.874268,585.395203 800.907349,583.536987 
	C800.988281,571.945496 800.988281,560.816772 800.988281,548.769226 
	C799.237854,550.137329 798.067749,551.051880 796.536438,552.001953 
	C794.184265,553.354126 792.252441,554.772400 790.192749,555.971069 
	C775.142517,564.729309 760.066650,573.443542 744.682190,582.092529 
	C743.880371,582.321228 743.395203,582.628967 742.950623,582.963135 
	C742.991211,582.989563 742.934998,582.910645 742.599731,583.057129 
	C742.174438,585.358276 742.003113,587.513245 742.007507,589.667786 
	C742.042969,607.108643 742.111511,624.549500 742.096802,642.393799 
	C742.004700,644.163330 741.985779,645.529419 741.656250,647.023804 
	C739.868469,648.422302 738.391296,649.692566 736.694702,650.996033 
	C736.475220,651.029175 736.044312,651.135803 735.754883,651.067139 
	C735.258362,651.318054 735.051270,651.637573 734.581543,652.059937 
	C733.884277,652.503723 733.449524,652.844604 732.745544,653.136475 
	C732.285217,653.384033 732.094055,653.680664 731.535461,653.999390 
	C719.932129,660.369812 708.675537,666.681702 697.465393,673.075134 
	C681.156555,682.376404 664.887146,691.746765 648.589783,701.068176 
	C636.346985,708.070557 624.080627,715.031860 611.835632,722.030334 
	C599.854797,728.877808 587.936279,735.837280 575.856750,742.505432 
	C574.242737,743.396423 571.844177,742.866394 569.888367,742.531860 
	C569.967773,512.463196 569.967773,282.857086 569.967773,53.187553 
	C567.866760,52.473267 565.917358,51.810501 563.645020,50.997688 
	C562.856995,50.374603 562.470398,49.763004 561.915466,49.448467 
	C536.543518,35.067188 511.138763,20.743708 485.800568,6.303347 
	C483.328979,4.894780 481.257324,2.784535 479.000000,1.000003 
	C639.631592,1.000000 800.263245,1.000000 960.947388,1.000000 
	C960.947388,320.895111 960.947388,640.790222 960.947388,961.000000 
	C801.306580,961.000000 641.612976,961.000000 481.153809,960.715088 
	C481.198730,959.631104 481.880493,958.601257 482.838654,958.066895 
	C501.313538,947.761597 519.880798,937.620667 538.303223,927.222839 
	C554.123169,918.293823 569.801575,909.113220 585.511230,899.989990 
	C596.036438,893.877625 606.444946,887.562439 617.019958,881.538696 
	C626.575745,876.095642 636.385132,871.095459 645.904663,865.592102 
	C658.075134,858.556030 670.036926,851.159973 682.144470,844.013611 
	C694.658081,836.627563 707.203308,829.293579 719.797913,822.046509 
	C740.625916,810.061829 761.472351,798.108337 782.374451,786.253662 
	C794.225403,779.532288 806.262512,773.139099 818.108887,766.409912 
	C835.225586,756.686707 852.283386,746.858032 869.288086,736.940247 
	C876.310120,732.844849 883.129456,728.401855 890.294495,724.027588 
	C890.633911,723.631531 890.719849,723.324829 890.878418,722.648254 
	C890.997070,721.527100 891.043091,720.775757 891.428223,719.867920 
	C891.537720,718.132446 891.308105,716.553650 891.028931,714.510010 
	C890.926697,705.362427 890.873962,696.679565 890.903076,687.534485 
	C890.989990,555.880859 890.995483,424.689545 890.992798,293.498230 
	C890.992737,292.337494 890.883057,291.176727 890.898560,289.551483 
	C890.976562,273.597382 891.062073,258.106812 890.876953,242.619492 
	C890.854919,240.778488 889.865417,238.062943 888.462402,237.261093 
	C873.894531,228.935226 859.054321,221.086182 844.476990,212.776321 
	C823.705505,200.935394 803.121399,188.766159 782.399475,176.837555 
	C765.429443,167.068726 748.315247,157.549759 731.372986,147.733521 
	C709.819214,135.245377 688.403076,122.520058 666.874451,109.988213 
	C646.642883,98.211395 626.342285,86.553284 605.965820,74.548904 
	C605.257446,74.143616 604.655273,74.032349 604.029053,73.957794 
	C604.005066,73.994514 604.076172,73.943024 603.959473,73.645439 
	C602.556458,72.865768 601.270142,72.383682 599.589355,72.106293 
	C599.130859,92.566147 599.057678,112.821281 599.043335,133.076477 
	C599.042847,133.746002 599.638489,134.415955 600.082520,135.417297 
	C603.788635,137.541901 607.368530,139.334900 611.050903,141.414459 
	C611.737793,141.816055 612.322266,141.931091 612.970093,142.295807 
	C613.314209,142.722809 613.594910,142.900177 613.955688,143.335022 
	C614.345032,143.682983 614.654358,143.773468 615.189575,143.930649 
	C615.415588,143.997330 615.883728,144.051102 616.029541,144.382050 
	C617.398804,145.476639 618.600098,146.278946 619.849182,146.998245 
	C639.546814,158.341187 659.291382,169.603210 678.942444,181.026184 
	C702.885010,194.943817 726.697937,209.085007 750.663391,222.962814 
	C775.036377,237.076614 799.568359,250.916214 823.902588,265.095825 
	C826.392639,266.546753 829.262268,269.252228 829.772461,271.810913 
	C830.952881,277.730286 830.793823,283.916779 831.095215,290.458069 
	C831.062744,322.282196 831.113037,353.643158 831.088074,385.466553 
	C831.065125,392.285950 831.117493,398.642975 831.094971,405.463318 
	C831.013428,415.062012 830.989136,424.197327 831.003174,433.332611 
	C831.051636,464.886688 831.113464,496.440735 831.095276,528.458496 
	C831.065918,569.954773 831.111389,610.987488 831.079712,652.410522 
	C831.047668,653.858032 831.092834,654.915161 831.060303,656.434692 
	C831.034424,661.603760 831.086182,666.310608 831.073608,671.455322 
	C831.064270,674.250366 831.119263,676.607544 831.096436,679.368896 
	C831.317871,681.526184 831.617126,683.279297 831.967285,685.424194 
	C831.253113,687.212585 830.846680,689.217896 829.667908,689.912720 
	C816.269653,697.810669 802.717468,705.446594 789.278137,713.275757 
	C773.907898,722.229797 758.662354,731.398682 743.266296,740.307617 
	C727.031372,749.701904 710.622864,758.796570 694.399048,768.209473 
	C674.591614,779.701599 654.923035,791.432800 635.143921,802.974060 
	C624.619080,809.115417 613.973816,815.050110 603.407349,821.120667 
	C587.835022,830.067200 572.265442,839.018860 556.730408,848.029907 
	C542.888306,856.058838 529.142090,864.254272 515.264587,872.221191 
	C504.148346,878.603027 492.924133,884.799194 481.672302,890.939331 
	C480.407227,891.629700 478.232422,892.130737 477.187988,891.515930 
	C468.076599,886.152527 459.126740,880.514709 450.072876,874.495239 
	C450.011047,627.352966 450.005646,380.673889 449.992462,133.994766 
	C449.992340,132.000351 449.886627,130.005920 449.905701,127.586838 
	C449.931030,125.440910 449.880829,123.719650 449.908539,121.555389 
	C449.985504,118.531380 450.025635,115.948311 449.896851,113.373680 
	C449.887695,113.190041 448.640747,113.068291 447.604340,112.966408 
	C433.131531,121.201874 419.019989,129.382263 404.917816,137.578796 
	C399.569153,140.687561 394.242126,143.833511 388.553131,147.149429 
	C388.435516,149.570663 388.670044,151.804993 388.957794,154.502075 
	C388.975494,160.632339 388.940002,166.299866 388.528870,172.178436 
	C388.496033,187.254700 388.838776,202.119873 389.108948,217.410187 
	C389.083221,219.556488 389.130035,221.277695 389.102997,223.247299 
	C389.078125,223.661392 389.127136,223.827072 389.103088,224.456787 
	C389.078705,244.948959 389.127380,264.977081 389.095581,285.467529 
	C389.069061,318.614594 389.122986,351.299316 389.103821,384.448639 
	C389.080627,396.276978 389.130554,407.640717 389.107361,419.249573 
	C389.082092,419.658417 389.129944,419.822113 389.102234,420.449951 
	C389.074615,438.277466 389.122528,455.640869 389.096771,473.249908 
	C389.070770,473.659760 389.118439,473.823944 389.092773,474.452484 
	C389.069275,490.280548 389.119141,505.644257 389.090881,521.470459 
	C389.066071,553.617310 389.119385,585.301758 389.099548,617.384033 
	C389.076813,618.856079 389.127197,619.930237 389.098145,621.467041 
	C389.070740,638.945007 389.122772,655.960327 389.096466,673.439941 
	C388.681152,696.323425 388.354553,718.742737 387.978638,741.161133 
	C387.958313,742.372742 387.524445,743.577454 387.212463,745.138794 
	C378.858368,740.451843 370.959839,736.152954 363.188629,731.634949 
	C341.676178,719.128296 320.259094,706.457397 298.725220,693.988098 
	C274.408020,679.906982 250.064743,665.868103 225.594162,652.056519 
	C219.888596,648.836243 217.549561,645.058655 217.779312,638.166504 
	C218.388763,619.883240 217.986130,601.566162 217.986130,583.742676 
	C209.108932,578.564331 200.627289,573.684204 192.212952,568.690674 
	C182.445374,562.894043 172.736816,556.997986 162.769592,551.069702 
	C162.536560,550.994263 162.053726,550.911621 162.031494,550.948975 
	C162.009277,550.986389 162.084808,550.943298 162.010040,550.683716 
	C161.625916,550.343628 161.316544,550.263123 160.684143,550.048523 
	C159.997147,549.636536 159.633179,549.358704 159.117218,548.784912 
	C155.567673,547.359680 157.492493,549.967651 157.115204,551.421021 
	C156.995956,553.208862 156.954086,554.589233 156.532288,556.184692 
	C156.101807,558.853638 155.924240,561.312866 156.027176,563.760193 
	C156.241501,568.855835 156.604309,573.945190 156.959930,579.500366 
	C156.977432,585.964844 156.941116,591.966125 156.530365,598.176392 
	C156.406036,602.269226 156.656143,606.153076 156.959320,610.500549 
	C157.068390,618.643311 157.124390,626.322449 157.103882,634.248657 
	C157.076828,634.661072 157.126297,634.826355 157.103928,635.455078 
	C156.990005,641.601685 156.947922,647.284790 156.526703,653.184082 
	C156.156250,659.936890 156.164917,666.473389 156.205048,673.375000 
	C157.340622,675.456482 158.042770,677.873596 159.614319,678.775146 
	C169.604248,684.505859 179.916473,689.677246 189.878342,695.453918 
	C212.569107,708.611694 235.050415,722.130859 257.746704,735.278992 
	C277.805511,746.899170 298.072693,758.159058 318.188263,769.682129 
	C339.768250,782.044006 361.282806,794.520142 382.814880,806.965515 
	C386.080902,808.853333 388.506775,811.172913 388.082825,815.528809 
	C387.778473,818.655823 388.118011,821.845459 388.093842,825.469849 
	C388.012024,852.958130 387.993805,879.983765 388.039368,907.009338 
	C388.041656,908.353821 388.598206,909.697327 389.047974,911.368042 
	C393.263885,913.823853 397.399109,915.829285 401.381561,918.102295 
	C425.154358,931.670349 448.896362,945.292419 472.617493,958.950623 
	C473.259003,959.319946 473.547089,960.303101 474.000000,961.000000 
z"/>
<path fill="#FFF4C7" opacity="1.000000" stroke="none" 
	d="
M606.072021,74.842934 
	C626.342285,86.553284 646.642883,98.211395 666.874451,109.988213 
	C688.403076,122.520058 709.819214,135.245377 731.372986,147.733521 
	C748.315247,157.549759 765.429443,167.068726 782.399475,176.837555 
	C803.121399,188.766159 823.705505,200.935394 844.476990,212.776321 
	C859.054321,221.086182 873.894531,228.935226 888.462402,237.261093 
	C889.865417,238.062943 890.854919,240.778488 890.876953,242.619492 
	C891.062073,258.106812 890.976562,273.597382 890.656433,289.884613 
	C890.226868,292.165619 890.014282,293.648956 890.014160,295.132324 
	C889.998901,424.322235 889.996765,553.512146 890.034119,682.702087 
	C890.034668,684.467041 890.547485,686.231873 890.821228,687.996765 
	C890.873962,696.679565 890.926697,705.362427 890.758179,714.746460 
	C890.721008,716.973328 890.905090,718.498901 891.089111,720.024475 
	C891.043091,720.775757 890.997070,721.527100 890.695679,722.789062 
	C890.215698,723.527405 890.082520,723.799805 890.040955,724.116943 
	C883.129456,728.401855 876.310120,732.844849 869.288086,736.940247 
	C852.283386,746.858032 835.225586,756.686707 818.108887,766.409912 
	C806.262512,773.139099 794.225403,779.532288 782.374451,786.253662 
	C761.472351,798.108337 740.625916,810.061829 719.797913,822.046509 
	C707.203308,829.293579 694.658081,836.627563 682.144470,844.013611 
	C670.036926,851.159973 658.075134,858.556030 645.904663,865.592102 
	C636.385132,871.095459 626.575745,876.095642 617.019958,881.538696 
	C606.444946,887.562439 596.036438,893.877625 585.511230,899.989990 
	C569.801575,909.113220 554.123169,918.293823 538.303223,927.222839 
	C519.880798,937.620667 501.313538,947.761597 482.838654,958.066895 
	C481.880493,958.601257 481.198730,959.631104 480.694122,960.715088 
	C478.958344,961.000000 476.916656,961.000000 474.437500,961.000000 
	C473.547089,960.303101 473.259003,959.319946 472.617493,958.950623 
	C448.896362,945.292419 425.154358,931.670349 401.381561,918.102295 
	C397.399109,915.829285 393.263885,913.823853 389.310852,911.115479 
	C389.281647,906.418091 389.026337,902.300232 389.019043,898.182007 
	C388.979401,875.719238 389.021088,853.256165 388.965149,830.793396 
	C388.960327,828.864014 388.447266,826.935913 388.170288,825.007202 
	C388.118011,821.845459 387.778473,818.655823 388.082825,815.528809 
	C388.506775,811.172913 386.080902,808.853333 382.814880,806.965515 
	C361.282806,794.520142 339.768250,782.044006 318.188263,769.682129 
	C298.072693,758.159058 277.805511,746.899170 257.746704,735.278992 
	C235.050415,722.130859 212.569107,708.611694 189.878342,695.453918 
	C179.916473,689.677246 169.604248,684.505859 159.614319,678.775146 
	C158.042770,677.873596 157.340622,675.456482 156.579590,673.251221 
	C156.917053,666.164246 156.911438,659.566040 156.905823,652.967896 
	C156.947922,647.284790 156.990005,641.601685 157.236572,635.357788 
	C157.616516,634.463257 157.529648,634.198120 157.180405,634.001526 
	C157.124390,626.322449 157.068390,618.643311 157.254181,610.209106 
	C157.298920,605.625061 157.101868,601.796265 156.904800,597.967407 
	C156.941116,591.966125 156.977432,585.964844 157.257980,579.202393 
	C157.305542,570.950745 157.108887,563.460144 156.912216,555.969604 
	C156.954086,554.589233 156.995956,553.208862 157.478729,551.314514 
	C158.369507,550.227295 158.819366,549.654053 159.269226,549.080811 
	C159.633179,549.358704 159.997147,549.636536 160.821136,550.230591 
	C161.501114,550.776062 161.768982,550.908264 162.084808,550.943298 
	C162.084808,550.943298 162.009277,550.986389 162.079926,551.119263 
	C162.434586,551.216492 162.718597,551.180786 163.002625,551.145020 
	C172.736816,556.997986 182.445374,562.894043 192.212952,568.690674 
	C200.627289,573.684204 209.108932,578.564331 217.986130,583.742676 
	C217.986130,601.566162 218.388763,619.883240 217.779312,638.166504 
	C217.549561,645.058655 219.888596,648.836243 225.594162,652.056519 
	C250.064743,665.868103 274.408020,679.906982 298.725220,693.988098 
	C320.259094,706.457397 341.676178,719.128296 363.188629,731.634949 
	C370.959839,736.152954 378.858368,740.451843 387.212463,745.138794 
	C387.524445,743.577454 387.958313,742.372742 387.978638,741.161133 
	C388.354553,718.742737 388.681152,696.323425 389.339417,673.108276 
	C389.756165,655.804443 389.859711,639.296631 389.914185,622.788696 
	C389.916138,622.194702 389.434082,621.599182 389.177612,621.004333 
	C389.127197,619.930237 389.076813,618.856079 389.342682,617.051086 
	C389.770691,615.671692 389.979797,615.023254 389.980194,614.374695 
	C389.997711,584.512024 390.007111,554.649292 389.963318,524.786682 
	C389.961487,523.526733 389.445496,522.267517 389.169006,521.007996 
	C389.119141,505.644257 389.069275,490.280548 389.224731,474.355530 
	C389.606140,473.463806 389.519623,473.200439 389.170441,473.004242 
	C389.122528,455.640869 389.074615,438.277466 389.233643,420.353210 
	C389.614960,419.462463 389.528290,419.199829 389.180511,419.004456 
	C389.130554,407.640717 389.080627,396.276978 389.345795,384.115356 
	C389.772003,382.668701 389.979858,382.020050 389.980255,381.371246 
	C389.998413,350.509674 390.008362,319.648102 389.965973,288.786591 
	C389.964264,287.525757 389.450989,286.265625 389.176025,285.005188 
	C389.127380,264.977081 389.078705,244.948959 389.235840,224.358780 
	C389.616089,223.461533 389.527863,223.195587 389.176849,222.998886 
	C389.130035,221.277695 389.083221,219.556488 389.350067,217.076294 
	C389.764038,202.250916 389.880066,188.184570 389.918854,174.118011 
	C389.920837,173.402069 389.257843,172.684296 388.904480,171.967377 
	C388.940002,166.299866 388.975494,160.632339 389.240021,154.238342 
	C389.281097,151.328766 389.093170,149.145645 388.905273,146.962540 
	C394.242126,143.833511 399.569153,140.687561 404.917816,137.578796 
	C419.019989,129.382263 433.131531,121.201874 447.744263,113.292664 
	C448.776306,116.379639 449.303467,119.189018 449.830627,121.998390 
	C449.880829,123.719650 449.931030,125.440910 449.662292,127.919838 
	C449.228516,130.161697 449.013153,131.645874 449.013062,133.130066 
	C448.997559,378.697571 448.995056,624.265076 449.043488,869.832581 
	C449.043823,871.541260 449.751526,873.249756 450.128937,874.958374 
	C459.126740,880.514709 468.076599,886.152527 477.187988,891.515930 
	C478.232422,892.130737 480.407227,891.629700 481.672302,890.939331 
	C492.924133,884.799194 504.148346,878.603027 515.264587,872.221191 
	C529.142090,864.254272 542.888306,856.058838 556.730408,848.029907 
	C572.265442,839.018860 587.835022,830.067200 603.407349,821.120667 
	C613.973816,815.050110 624.619080,809.115417 635.143921,802.974060 
	C654.923035,791.432800 674.591614,779.701599 694.399048,768.209473 
	C710.622864,758.796570 727.031372,749.701904 743.266296,740.307617 
	C758.662354,731.398682 773.907898,722.229797 789.278137,713.275757 
	C802.717468,705.446594 816.269653,697.810669 829.667908,689.912720 
	C830.846680,689.217896 831.253113,687.212585 832.264404,685.125854 
	C832.674377,683.132324 832.980652,681.828979 832.981323,680.525513 
	C833.005005,631.249573 833.009766,581.973633 832.958130,532.697754 
	C832.956482,531.126587 832.336914,529.556152 832.004517,527.518188 
	C832.333496,516.369690 832.663513,505.688354 832.995728,494.537659 
	C832.996521,484.377258 832.995178,474.686249 832.994141,464.663025 
	C832.994263,463.887970 832.994080,463.445038 832.991638,462.666443 
	C832.659546,461.552185 832.329773,460.773651 832.000000,459.526764 
	C831.999146,441.038940 831.998352,423.019470 831.999084,404.534454 
	C832.103088,399.914703 832.257507,395.760895 832.286804,391.606171 
	C832.302368,389.403107 832.101013,387.198486 831.999023,384.565796 
	C832.005615,382.421387 832.010681,380.705750 832.291992,378.681580 
	C832.383484,372.586639 832.198608,366.800201 832.009277,360.544250 
	C832.003235,338.642029 832.022644,317.209259 831.964294,295.776703 
	C831.959045,293.848755 831.451965,291.922150 831.177917,289.994934 
	C830.793823,283.916779 830.952881,277.730286 829.772461,271.810913 
	C829.262268,269.252228 826.392639,266.546753 823.902588,265.095825 
	C799.568359,250.916214 775.036377,237.076614 750.663391,222.962814 
	C726.697937,209.085007 702.885010,194.943817 678.942444,181.026184 
	C659.291382,169.603210 639.546814,158.341187 619.849182,146.998245 
	C618.600098,146.278946 617.398804,145.476639 616.264038,144.168884 
	C615.204102,143.098587 614.055359,142.572357 612.906677,142.046143 
	C612.322266,141.931091 611.737793,141.816055 611.023438,141.053192 
	C609.554138,139.302811 608.058350,138.341232 606.909607,137.066879 
	C604.833557,134.763840 601.339600,132.319702 601.270203,129.854797 
	C600.778503,112.377342 600.947693,94.879028 601.136169,77.389832 
	C601.148682,76.230476 603.052246,75.091484 604.076172,73.943024 
	C604.076172,73.943024 604.005066,73.994514 604.053650,74.254677 
	C604.758850,74.624199 605.415405,74.733559 606.072021,74.842934 
z"/>
<path fill="#ADECFE" opacity="1.000000" stroke="none" 
	d="
M569.808960,742.994385 
	C571.844177,742.866394 574.242737,743.396423 575.856750,742.505432 
	C587.936279,735.837280 599.854797,728.877808 611.835632,722.030334 
	C624.080627,715.031860 636.346985,708.070557 648.589783,701.068176 
	C664.887146,691.746765 681.156555,682.376404 697.465393,673.075134 
	C708.675537,666.681702 719.932129,660.369812 731.759155,653.928223 
	C732.633484,653.681580 732.854980,653.465088 733.014771,653.185486 
	C733.449524,652.844604 733.884277,652.503723 734.820557,651.987915 
	C735.623352,651.651733 735.864075,651.426025 736.044312,651.135803 
	C736.044312,651.135803 736.475220,651.029175 737.093140,651.004456 
	C740.646118,651.198547 742.217773,649.996704 741.966797,646.895569 
	C741.985779,645.529419 742.004700,644.163330 742.340698,642.060791 
	C742.750183,621.853149 742.842590,602.381897 742.934998,582.910645 
	C742.934998,582.910645 742.991211,582.989563 743.242798,582.965576 
	C743.995911,582.684875 744.497375,582.428284 744.998840,582.171692 
	C760.066650,573.443542 775.142517,564.729309 790.192749,555.971069 
	C792.252441,554.772400 794.184265,553.354126 796.931396,552.071899 
	C798.458313,554.054260 799.788757,555.969849 799.903381,557.955566 
	C800.403687,566.625854 800.551025,575.316467 800.826538,583.999695 
	C800.874268,585.395203 800.921997,586.790771 800.659546,588.925232 
	C800.516296,593.446350 800.683289,597.228577 800.850220,601.010742 
	C800.900146,604.006104 800.950073,607.001404 801.007202,610.919067 
	C801.008789,631.044189 800.998779,650.247070 801.002625,669.449890 
	C801.003174,671.982727 801.074890,674.515625 801.113647,677.048462 
	C789.705383,683.560486 778.298035,690.074036 766.888855,696.584351 
	C752.932434,704.547974 738.959595,712.482788 725.021912,720.478882 
	C712.451172,727.690796 699.890564,734.921143 687.374878,742.227905 
	C667.072693,754.080505 646.878479,766.119446 626.513550,777.862610 
	C605.040161,790.244934 583.339355,802.233276 561.890747,814.657532 
	C546.035583,823.841614 530.425232,833.448547 514.155029,842.698181 
	C512.737549,839.880981 511.112946,837.233032 511.111694,834.584290 
	C510.995453,586.984924 511.005035,339.385498 510.967865,91.786072 
	C510.967560,89.855675 510.441254,87.925354 510.160553,85.995003 
	C509.009125,84.399292 508.190979,82.283188 506.649750,81.296211 
	C499.207764,76.530487 491.393707,72.331673 484.074707,67.393661 
	C480.119293,64.725006 476.904480,66.001732 473.684601,67.873985 
	C455.089142,78.686607 436.634308,89.741615 418.016510,100.515221 
	C391.089600,116.097076 364.012177,131.418976 337.096710,147.020508 
	C313.834229,160.504578 290.765808,174.323517 267.503296,187.807526 
	C249.289139,198.365280 230.843628,208.523621 212.620346,219.065872 
	C192.167801,230.897797 171.873169,243.002380 151.457230,254.898071 
	C145.923309,258.122498 140.194092,261.011078 134.563843,264.070984 
	C126.981544,268.191742 124.957275,273.211395 127.323616,281.871094 
	C127.615479,282.939209 127.762062,284.047058 127.626755,285.615479 
	C127.218605,286.741180 127.159676,287.387909 127.100746,288.034637 
	C127.054863,291.724701 127.008980,295.414795 126.650040,299.894836 
	C126.224564,302.503357 126.013954,304.321930 126.013725,306.140503 
	C125.997620,432.303680 125.998253,558.466858 125.999130,684.630066 
	C125.999138,685.963196 125.767281,687.368103 126.117172,688.605530 
	C126.371376,689.504578 127.408409,690.182312 128.096405,690.958679 
	C128.096405,690.958679 128.564636,691.029663 128.926727,691.289246 
	C129.510208,691.778198 129.778458,691.916931 130.093582,691.965027 
	C141.226471,698.306641 152.346191,704.671509 163.495880,710.983459 
	C174.791290,717.377747 186.195419,723.583984 197.407974,730.119629 
	C210.874023,737.968872 224.173553,746.103333 237.574020,754.065796 
	C243.933701,757.844666 250.360291,761.510742 257.059326,765.815918 
	C257.940613,766.589783 258.519196,766.775696 259.097778,766.961609 
	C259.097778,766.961609 259.559662,767.024841 259.919250,767.283691 
	C260.502075,767.772644 260.772278,767.910583 261.089508,767.956482 
	C261.089508,767.956482 261.016907,767.984497 261.060913,768.311646 
	C263.764557,770.075439 266.424194,771.512085 269.083832,772.948730 
	C269.083832,772.948730 269.011078,772.984985 269.089630,773.312622 
	C270.473267,774.082642 271.778381,774.525024 273.083496,774.967407 
	C273.083496,774.967346 273.548187,775.034546 273.912201,775.289917 
	C274.501801,775.773682 274.773499,775.910400 275.091309,775.955383 
	C275.091309,775.955383 275.017792,775.982483 275.081696,776.297852 
	C276.124512,777.058350 277.103424,777.503479 278.082367,777.948608 
	C278.082367,777.948608 278.010040,777.985962 278.080658,778.313232 
	C280.132385,779.402954 282.113525,780.165405 284.094666,780.927856 
	C284.094635,780.927917 284.016113,780.966614 284.134766,781.165833 
	C284.530731,781.562073 284.808044,781.759033 285.085388,781.955994 
	C285.085388,781.955994 285.016907,781.993225 285.085236,782.307922 
	C286.135956,783.068542 287.118317,783.514465 288.100708,783.960327 
	C295.707916,788.126709 303.363647,792.207397 310.910858,796.479797 
	C321.686523,802.579956 332.373413,808.836731 343.118683,814.990906 
	C346.292145,816.808472 349.534332,818.505981 353.009338,820.820618 
	C353.549835,821.574158 353.826111,821.765503 354.102386,821.956909 
	C354.102386,821.956909 354.027252,821.963684 354.195374,822.187439 
	C354.936523,822.590027 355.509583,822.768860 356.082642,822.947632 
	C356.082642,822.947632 356.008209,822.985413 356.012817,823.412354 
	C356.342499,828.118164 356.958954,832.398315 356.940063,836.675598 
	C356.874115,851.594543 356.555267,866.512329 356.449921,881.431335 
	C356.441559,882.613586 357.334869,883.802185 357.809143,884.987793 
	C357.487549,887.216980 357.165924,889.446167 356.863922,891.539368 
	C346.080963,885.369019 335.300629,879.225342 324.545013,873.038818 
	C312.955505,866.372742 301.387146,859.669861 289.813171,852.976807 
	C272.938446,843.218384 256.084869,833.423218 239.188538,823.702332 
	C224.793762,815.420593 210.321945,807.272705 195.937820,798.972656 
	C179.607391,789.549500 163.355103,779.990967 147.033081,770.553162 
	C136.830017,764.653442 126.553619,758.880676 116.323280,753.027893 
	C99.290413,743.283386 82.268074,733.520386 65.116379,722.966919 
	C64.994896,563.205505 65.001045,404.242371 64.966522,245.279236 
	C64.966141,243.517441 64.435677,241.755768 64.152664,239.994049 
	C66.595161,238.354614 68.952499,236.567627 71.494438,235.100449 
	C84.607185,227.531937 97.758377,220.029785 110.913452,212.534851 
	C122.961784,205.670486 135.082565,198.931854 147.082031,191.983459 
	C169.963333,178.733856 192.728287,165.282883 215.640320,152.086990 
	C237.276672,139.625793 259.095825,127.481987 280.730865,115.018555 
	C300.698914,103.515419 320.484528,91.695892 340.433350,80.158981 
	C359.097931,69.364769 377.870331,58.756935 396.597046,48.070137 
	C412.973602,38.724503 429.372681,29.418045 445.722656,20.026176 
	C454.922607,14.741465 464.056030,9.340291 473.180786,3.926401 
	C474.126709,3.365156 474.808807,2.359244 475.306671,1.279830 
	C476.066681,1.000000 477.133331,1.000000 478.600006,1.000003 
	C481.257324,2.784535 483.328979,4.894780 485.800568,6.303347 
	C511.138763,20.743708 536.543518,35.067188 561.915466,49.448467 
	C562.470398,49.763004 562.856995,50.374603 563.711548,51.348465 
	C570.149414,54.647408 568.983704,60.123856 568.983887,65.126312 
	C568.994080,288.983337 568.991455,512.840393 569.028137,736.697388 
	C569.028503,738.796448 569.537476,740.895386 569.808960,742.994385 
z"/>
<path fill="#BAE1EA" opacity="1.000000" stroke="none" 
	d="
M510.088440,86.459572 
	C510.441254,87.925354 510.967560,89.855675 510.967865,91.786072 
	C511.005035,339.385498 510.995453,586.984924 511.111694,834.584290 
	C511.112946,837.233032 512.737549,839.880981 513.826965,842.837646 
	C512.813599,843.689087 511.577545,844.232178 510.016327,844.918152 
	C510.016327,592.026306 510.016327,339.475220 510.088440,86.459572 
z"/>
<path fill="#F0EBD2" opacity="1.000000" stroke="none" 
	d="
M450.072876,874.495239 
	C449.751526,873.249756 449.043823,871.541260 449.043488,869.832581 
	C448.995056,624.265076 448.997559,378.697571 449.013062,133.130066 
	C449.013153,131.645874 449.228516,130.161697 449.586761,128.344513 
	C449.886627,130.005920 449.992340,132.000351 449.992462,133.994766 
	C450.005646,380.673889 450.011047,627.352966 450.072876,874.495239 
z"/>
<path fill="#B6DEEF" opacity="1.000000" stroke="none" 
	d="
M569.888367,742.531860 
	C569.537476,740.895386 569.028503,738.796448 569.028137,736.697388 
	C568.991455,512.840393 568.994080,288.983337 568.983887,65.126312 
	C568.983704,60.123856 570.149414,54.647408 564.034424,51.498512 
	C565.917358,51.810501 567.866760,52.473267 569.967773,53.187553 
	C569.967773,282.857086 569.967773,512.463196 569.888367,742.531860 
z"/>
<path fill="#B9DFEC" opacity="1.000000" stroke="none" 
	d="
M64.086212,240.459427 
	C64.435677,241.755768 64.966141,243.517441 64.966522,245.279236 
	C65.001045,404.242371 64.994896,563.205505 64.978333,722.645447 
	C64.643410,721.611267 64.040184,720.100403 64.039841,718.589355 
	C64.003838,559.367859 64.013138,400.146332 64.086212,240.459427 
z"/>
<path fill="#F3E8C9" opacity="1.000000" stroke="none" 
	d="
M890.903076,687.534485 
	C890.547485,686.231873 890.034668,684.467041 890.034119,682.702087 
	C889.996765,553.512146 889.998901,424.322235 890.014160,295.132324 
	C890.014282,293.648956 890.226868,292.165619 890.582520,290.349121 
	C890.883057,291.176727 890.992737,292.337494 890.992798,293.498230 
	C890.995483,424.689545 890.989990,555.880859 890.903076,687.534485 
z"/>
<path fill="#AFDEF2" opacity="1.000000" stroke="none" 
	d="
M128.043777,690.535278 
	C127.408409,690.182312 126.371376,689.504578 126.117172,688.605530 
	C125.767281,687.368103 125.999138,685.963196 125.999130,684.630066 
	C125.998253,558.466858 125.997620,432.303680 126.013725,306.140503 
	C126.013954,304.321930 126.224564,302.503357 126.578064,300.351196 
	C126.880051,302.012146 126.994148,304.006714 126.994247,306.001282 
	C127.000717,431.968781 126.993141,557.936279 127.037331,683.903748 
	C127.038055,685.973206 127.659416,688.042480 128.043777,690.535278 
z"/>
<path fill="#F4E8C1" opacity="1.000000" stroke="none" 
	d="
M832.005432,527.985352 
	C832.336914,529.556152 832.956482,531.126587 832.958130,532.697754 
	C833.009766,581.973633 833.005005,631.249573 832.981323,680.525513 
	C832.980652,681.828979 832.674377,683.132324 832.213501,684.734009 
	C831.617126,683.279297 831.317871,681.526184 831.328979,679.070923 
	C831.472229,675.918335 831.305115,673.467834 831.137939,671.017395 
	C831.086182,666.310608 831.034424,661.603760 831.284302,656.208740 
	C831.442932,654.353699 831.299927,653.186890 831.156921,652.020142 
	C831.111389,610.987488 831.065918,569.954773 831.304138,528.457642 
	C831.587891,527.993103 832.005432,527.985352 832.005432,527.985352 
z"/>
<path fill="#FFE6CC" opacity="1.000000" stroke="none" 
	d="
M832.004517,527.518188 
	C832.005432,527.985352 831.587891,527.993103 831.379028,527.993958 
	C831.113464,496.440735 831.051636,464.886688 831.003174,433.332611 
	C830.989136,424.197327 831.013428,415.062012 831.301880,405.463440 
	C831.583679,405.000153 831.997559,405.000000 831.997559,405.000000 
	C831.998352,423.019470 831.999146,441.038940 832.003601,459.862427 
	C832.336121,461.445007 832.665039,462.223572 832.993896,463.002136 
	C832.994080,463.445038 832.994263,463.887970 832.715210,464.972534 
	C832.290710,472.696869 832.040710,479.779755 832.053284,486.862152 
	C832.058105,489.577637 832.662415,492.292053 832.993530,495.006989 
	C832.663513,505.688354 832.333496,516.369690 832.004517,527.518188 
z"/>
<path fill="#F3EEC9" opacity="1.000000" stroke="none" 
	d="
M389.095581,285.467529 
	C389.450989,286.265625 389.964264,287.525757 389.965973,288.786591 
	C390.008362,319.648102 389.998413,350.509674 389.980255,381.371246 
	C389.979858,382.020050 389.772003,382.668701 389.418945,383.650757 
	C389.122986,351.299316 389.069061,318.614594 389.095581,285.467529 
z"/>
<path fill="#F1F1D0" opacity="1.000000" stroke="none" 
	d="
M389.090881,521.470459 
	C389.445496,522.267517 389.961487,523.526733 389.963318,524.786682 
	C390.007111,554.649292 389.997711,584.512024 389.980194,614.374695 
	C389.979797,615.023254 389.770691,615.671692 389.415833,616.653198 
	C389.119385,585.301758 389.066071,553.617310 389.090881,521.470459 
z"/>
<path fill="#EFEAC0" opacity="1.000000" stroke="none" 
	d="
M603.959473,73.645439 
	C603.052246,75.091484 601.148682,76.230476 601.136169,77.389832 
	C600.947693,94.879028 600.778503,112.377342 601.270203,129.854797 
	C601.339600,132.319702 604.833557,134.763840 606.909607,137.066879 
	C608.058350,138.341232 609.554138,139.302811 610.920959,140.766632 
	C607.368530,139.334900 603.788635,137.541901 600.093384,134.943970 
	C599.979980,113.393234 599.981934,92.647408 599.983887,71.901588 
	C601.270142,72.383682 602.556458,72.865768 603.959473,73.645439 
z"/>
<path fill="#FFD9D9" opacity="1.000000" stroke="none" 
	d="
M831.095215,290.458069 
	C831.451965,291.922150 831.959045,293.848755 831.964294,295.776703 
	C832.022644,317.209259 832.003235,338.642029 832.004517,361.010437 
	C832.007996,367.627472 832.011841,373.308777 832.015686,378.990082 
	C832.010681,380.705750 832.005615,382.421387 831.790527,384.568787 
	C831.580444,385.000519 831.163330,385.004150 831.163330,385.004150 
	C831.113037,353.643158 831.062744,322.282196 831.095215,290.458069 
z"/>
<path fill="#EFEACB" opacity="1.000000" stroke="none" 
	d="
M388.093842,825.469849 
	C388.447266,826.935913 388.960327,828.864014 388.965149,830.793396 
	C389.021088,853.256165 388.979401,875.719238 389.019043,898.182007 
	C389.026337,902.300232 389.281647,906.418091 389.159546,910.788696 
	C388.598206,909.697327 388.041656,908.353821 388.039368,907.009338 
	C387.993805,879.983765 388.012024,852.958130 388.093842,825.469849 
z"/>
<path fill="#B6DEEF" opacity="1.000000" stroke="none" 
	d="
M357.891907,884.526489 
	C357.334869,883.802185 356.441559,882.613586 356.449921,881.431335 
	C356.555267,866.512329 356.874115,851.594543 356.940063,836.675598 
	C356.958954,832.398315 356.342499,828.118164 356.034180,823.376587 
	C356.698792,824.250671 357.902557,825.584106 357.910706,826.924927 
	C358.026947,845.971130 357.981262,865.018311 357.891907,884.526489 
z"/>
<path fill="#B6DEEF" opacity="1.000000" stroke="none" 
	d="
M801.485901,676.820923 
	C801.074890,674.515625 801.003174,671.982727 801.002625,669.449890 
	C800.998779,650.247070 801.008789,631.044189 801.028748,611.365967 
	C801.359985,611.735840 801.953064,612.581116 801.953308,613.426514 
	C801.959656,634.482117 801.903381,655.537720 801.485901,676.820923 
z"/>
<path fill="#FFFFFF" opacity="1.000000" stroke="none" 
	d="
M599.589355,72.106293 
	C599.981934,92.647408 599.979980,113.393234 599.967163,134.612381 
	C599.638489,134.415955 599.042847,133.746002 599.043335,133.076477 
	C599.057678,112.821281 599.130859,92.566147 599.589355,72.106293 
z"/>
<path fill="#B7E2ED" opacity="1.000000" stroke="none" 
	d="
M742.599731,583.057129 
	C742.842590,602.381897 742.750183,621.853149 742.413818,641.657349 
	C742.111511,624.549500 742.042969,607.108643 742.007507,589.667786 
	C742.003113,587.513245 742.174438,585.358276 742.599731,583.057129 
z"/>
<path fill="#F0E7C6" opacity="1.000000" stroke="none" 
	d="
M388.528870,172.178436 
	C389.257843,172.684296 389.920837,173.402069 389.918854,174.118011 
	C389.880066,188.184570 389.764038,202.250916 389.422607,216.651184 
	C388.838776,202.119873 388.496033,187.254700 388.528870,172.178436 
z"/>
<path fill="#F1F1D0" opacity="1.000000" stroke="none" 
	d="
M389.098145,621.467041 
	C389.434082,621.599182 389.916138,622.194702 389.914185,622.788696 
	C389.859711,639.296631 389.756165,655.804443 389.417786,672.643921 
	C389.122772,655.960327 389.070740,638.945007 389.098145,621.467041 
z"/>
<path fill="#EFEAC0" opacity="1.000000" stroke="none" 
	d="
M156.532288,556.184692 
	C157.108887,563.460144 157.305542,570.950745 157.204163,578.739258 
	C156.604309,573.945190 156.241501,568.855835 156.027176,563.760193 
	C155.924240,561.312866 156.101807,558.853638 156.532288,556.184692 
z"/>
<path fill="#B1DFED" opacity="1.000000" stroke="none" 
	d="
M800.907410,583.536987 
	C800.551025,575.316467 800.403687,566.625854 799.903381,557.955566 
	C799.788757,555.969849 798.458313,554.054260 797.292603,552.036377 
	C798.067749,551.051880 799.237854,550.137329 800.988281,548.769226 
	C800.988281,560.816772 800.988281,571.945496 800.907410,583.536987 
z"/>
<path fill="#EFEAC0" opacity="1.000000" stroke="none" 
	d="
M156.526703,653.184082 
	C156.911438,659.566040 156.917053,666.164246 156.548126,672.886169 
	C156.164917,666.473389 156.156250,659.936890 156.526703,653.184082 
z"/>
<path fill="#F4E8C1" opacity="1.000000" stroke="none" 
	d="
M831.088074,385.466553 
	C831.163330,385.004150 831.580444,385.000519 831.788940,384.997559 
	C832.101013,387.198486 832.302368,389.403107 832.286804,391.606171 
	C832.257507,395.760895 832.103088,399.914703 831.999084,404.534454 
	C831.997559,405.000000 831.583679,405.000153 831.376709,405.000061 
	C831.117493,398.642975 831.065125,392.285950 831.088074,385.466553 
z"/>
<path fill="#EFEAC0" opacity="1.000000" stroke="none" 
	d="
M156.530365,598.176392 
	C157.101868,601.796265 157.298920,605.625061 157.201111,609.745361 
	C156.656143,606.153076 156.406036,602.269226 156.530365,598.176392 
z"/>
<path fill="#B6DEEF" opacity="1.000000" stroke="none" 
	d="
M268.952820,772.620972 
	C266.424194,771.512085 263.764557,770.075439 261.076416,768.276001 
	C263.639221,769.373230 266.230499,770.833252 268.952820,772.620972 
z"/>
<path fill="#F0EBD2" opacity="1.000000" stroke="none" 
	d="
M449.908539,121.555389 
	C449.303467,119.189018 448.776306,116.379639 448.109253,113.244011 
	C448.640747,113.068291 449.887695,113.190041 449.896851,113.373680 
	C450.025635,115.948311 449.985504,118.531380 449.908539,121.555389 
z"/>
<path fill="#F0E7C6" opacity="1.000000" stroke="none" 
	d="
M388.553162,147.149429 
	C389.093170,149.145645 389.281097,151.328766 389.186798,153.775604 
	C388.670044,151.804993 388.435516,149.570663 388.553162,147.149429 
z"/>
<path fill="#B1DFED" opacity="1.000000" stroke="none" 
	d="
M800.924622,600.554138 
	C800.683289,597.228577 800.516296,593.446350 800.588257,589.339111 
	C800.884460,592.708496 800.941711,596.403015 800.924622,600.554138 
z"/>
<path fill="#B6DEEF" opacity="1.000000" stroke="none" 
	d="
M283.974396,780.588257 
	C282.113525,780.165405 280.132385,779.402954 278.099365,778.277100 
	C279.983032,778.691956 281.918579,779.470276 283.974396,780.588257 
z"/>
<path fill="#F3E8C9" opacity="1.000000" stroke="none" 
	d="
M891.428223,719.867920 
	C890.905090,718.498901 890.721008,716.973328 890.807739,715.211304 
	C891.308105,716.553650 891.537720,718.132446 891.428223,719.867920 
z"/>
<path fill="#B7E2ED" opacity="1.000000" stroke="none" 
	d="
M741.656250,647.023804 
	C742.217773,649.996704 740.646118,651.198547 737.312561,650.971313 
	C738.391296,649.692566 739.868469,648.422302 741.656250,647.023804 
z"/>
<path fill="#FFF4C7" opacity="1.000000" stroke="none" 
	d="
M831.073608,671.455322 
	C831.305115,673.467834 831.472229,675.918335 831.406799,678.666748 
	C831.119263,676.607544 831.064270,674.250366 831.073608,671.455322 
z"/>
<path fill="#EFEAC0" opacity="1.000000" stroke="none" 
	d="
M159.117233,548.784912 
	C158.819366,549.654053 158.369507,550.227295 157.556122,550.906982 
	C157.492493,549.967651 155.567673,547.359680 159.117233,548.784912 
z"/>
<path fill="#EFEAC0" opacity="1.000000" stroke="none" 
	d="
M612.970093,142.295807 
	C614.055359,142.572357 615.204102,143.098587 616.118286,143.837952 
	C615.883728,144.051102 615.415588,143.997330 615.058838,143.738831 
	C614.463013,143.271423 614.187500,143.137161 613.875671,143.077545 
	C613.594910,142.900177 613.314209,142.722809 612.970093,142.295807 
z"/>
<path fill="#B6DEEF" opacity="1.000000" stroke="none" 
	d="
M272.948975,774.646973 
	C271.778381,774.525024 270.473267,774.082642 269.107788,773.276245 
	C270.303101,773.383667 271.558807,773.855103 272.948975,774.646973 
z"/>
<path fill="#B6DEEF" opacity="1.000000" stroke="none" 
	d="
M287.979706,783.651733 
	C287.118317,783.514465 286.135956,783.068542 285.100433,782.272034 
	C285.984436,782.395325 286.921600,782.869263 287.979706,783.651733 
z"/>
<path fill="#B6DEEF" opacity="1.000000" stroke="none" 
	d="
M277.967529,777.639160 
	C277.103424,777.503479 276.124512,777.058350 275.097198,776.261902 
	C275.983429,776.383606 276.918030,776.856628 277.967529,777.639160 
z"/>
<path fill="#AFDEF2" opacity="1.000000" stroke="none" 
	d="
M127.397491,287.924011 
	C127.159676,287.387909 127.218605,286.741180 127.553116,286.045166 
	C127.783882,286.601715 127.739059,287.207520 127.397491,287.924011 
z"/>
<path fill="#EFEAC0" opacity="1.000000" stroke="none" 
	d="
M605.965820,74.548904 
	C605.415405,74.733559 604.758850,74.624199 604.077637,74.217957 
	C604.655273,74.032349 605.257446,74.143616 605.965820,74.548904 
z"/>
<path fill="#FFF4C7" opacity="1.000000" stroke="none" 
	d="
M831.079712,652.410522 
	C831.299927,653.186890 831.442932,654.353699 831.361938,655.746399 
	C831.092834,654.915161 831.047668,653.858032 831.079712,652.410522 
z"/>
<path fill="#B6DEEF" opacity="1.000000" stroke="none" 
	d="
M258.984009,766.658997 
	C258.519196,766.775696 257.940613,766.589783 257.196838,766.139160 
	C257.644501,766.035095 258.257385,766.195740 258.984009,766.658997 
z"/>
<path fill="#B6DEEF" opacity="1.000000" stroke="none" 
	d="
M355.973602,822.645813 
	C355.509583,822.768860 354.936523,822.590027 354.197937,822.149780 
	C354.643127,822.040222 355.253845,822.192078 355.973602,822.645813 
z"/>
<path fill="#B7E2ED" opacity="1.000000" stroke="none" 
	d="
M744.682190,582.092529 
	C744.497375,582.428284 743.995911,582.684875 743.202271,582.939087 
	C743.395203,582.628967 743.880371,582.321228 744.682190,582.092529 
z"/>
<path fill="#F0E7C6" opacity="1.000000" stroke="none" 
	d="
M389.102997,223.247299 
	C389.527863,223.195587 389.616089,223.461533 389.308838,223.894730 
	C389.127136,223.827072 389.078125,223.661392 389.102997,223.247299 
z"/>
<path fill="#B6DEEF" opacity="1.000000" stroke="none" 
	d="
M285.001740,781.704834 
	C284.808044,781.759033 284.530731,781.562073 284.151855,781.125488 
	C284.339569,781.075195 284.628845,781.264465 285.001740,781.704834 
z"/>
<path fill="#B6DEEF" opacity="1.000000" stroke="none" 
	d="
M275.014465,775.692749 
	C274.773499,775.910400 274.501801,775.773682 274.135895,775.361084 
	C274.309570,775.261292 274.623596,775.345764 275.014465,775.692749 
z"/>
<path fill="#B6DEEF" opacity="1.000000" stroke="none" 
	d="
M354.026855,821.701660 
	C353.826111,821.765503 353.549835,821.574158 353.172699,821.148315 
	C353.364990,821.091370 353.658173,821.268921 354.026855,821.701660 
z"/>
<path fill="#B7E2ED" opacity="1.000000" stroke="none" 
	d="
M735.754883,651.067139 
	C735.864075,651.426025 735.623352,651.651733 735.083130,651.885071 
	C735.051270,651.637573 735.258362,651.318054 735.754883,651.067139 
z"/>
<path fill="#B6DEEF" opacity="1.000000" stroke="none" 
	d="
M261.012512,767.696350 
	C260.772278,767.910583 260.502075,767.772644 260.140228,767.357971 
	C260.312897,767.260925 260.624207,767.348572 261.012512,767.696350 
z"/>
<path fill="#F3E8C9" opacity="1.000000" stroke="none" 
	d="
M890.294495,724.027588 
	C890.082520,723.799805 890.215698,723.527405 890.623047,723.158936 
	C890.719849,723.324829 890.633911,723.631531 890.294495,724.027588 
z"/>
<path fill="#AFDEF2" opacity="1.000000" stroke="none" 
	d="
M130.015472,691.707336 
	C129.778458,691.916931 129.510208,691.778198 129.151123,691.364868 
	C129.321411,691.270447 129.629395,691.360046 130.015472,691.707336 
z"/>
<path fill="#B7E2ED" opacity="1.000000" stroke="none" 
	d="
M732.745544,653.136475 
	C732.854980,653.465088 732.633484,653.681580 732.126648,653.906128 
	C732.094055,653.680664 732.285217,653.384033 732.745544,653.136475 
z"/>
<path fill="#FFF4C7" opacity="1.000000" stroke="none" 
	d="
M613.955688,143.335022 
	C614.187500,143.137161 614.463013,143.271423 614.832886,143.672150 
	C614.654358,143.773468 614.345032,143.682983 613.955688,143.335022 
z"/>
<path fill="#EFEAC0" opacity="1.000000" stroke="none" 
	d="
M157.103882,634.248657 
	C157.529648,634.198120 157.616516,634.463257 157.308411,634.894287 
	C157.126297,634.826355 157.076828,634.661072 157.103882,634.248657 
z"/>
<path fill="#EFEAC0" opacity="1.000000" stroke="none" 
	d="
M162.769592,551.069641 
	C162.718597,551.180786 162.434586,551.216492 162.102142,551.081909 
	C162.053726,550.911621 162.536560,550.994263 162.769592,551.069641 
z"/>
<path fill="#EFEAC0" opacity="1.000000" stroke="none" 
	d="
M162.010040,550.683716 
	C161.768982,550.908264 161.501114,550.776062 161.144165,550.364685 
	C161.316544,550.263123 161.625916,550.343628 162.010040,550.683716 
z"/>
<path fill="#F3EEC9" opacity="1.000000" stroke="none" 
	d="
M389.096771,473.249908 
	C389.519623,473.200439 389.606140,473.463806 389.298096,473.891235 
	C389.118439,473.823944 389.070770,473.659760 389.096771,473.249908 
z"/>
<path fill="#F3EEC9" opacity="1.000000" stroke="none" 
	d="
M389.107361,419.249573 
	C389.528290,419.199829 389.614960,419.462463 389.309174,419.889038 
	C389.129944,419.822113 389.082092,419.658417 389.107361,419.249573 
z"/>
<path fill="#F4E8C1" opacity="1.000000" stroke="none" 
	d="
M832.995728,494.537659 
	C832.662415,492.292053 832.058105,489.577637 832.053284,486.862152 
	C832.040710,479.779755 832.290710,472.696869 832.714966,465.304688 
	C832.995178,474.686249 832.996521,484.377258 832.995728,494.537659 
z"/>
<path fill="#F4E8C1" opacity="1.000000" stroke="none" 
	d="
M832.291992,378.681580 
	C832.011841,373.308777 832.007996,367.627472 832.008972,361.479950 
	C832.198608,366.800201 832.383484,372.586639 832.291992,378.681580 
z"/>
<path fill="#F4E8C1" opacity="1.000000" stroke="none" 
	d="
M832.991699,462.666443 
	C832.665039,462.223572 832.336121,461.445007 832.003601,460.330780 
	C832.329773,460.773651 832.659546,461.552185 832.991699,462.666443 
z"/>
</svg>